<svg width="180" height="180" viewBox="0 0 180 180" fill="none" xmlns="http://www.w3.org/2000/svg">
<g clip-path="url(#clip0_1_41)">
<path d="M94.6586 128.298C94.2533 124.538 90.0431 120.662 87.6275 119.477C93.8583 127.125 90.7204 146.105 88.3725 154.639C88.5847 156.041 89.8946 157.724 93.4372 153.235C97.8653 147.625 95.1652 132.998 94.6586 128.298Z" fill="url(#paint0_linear_1_41)"/>
<path d="M108.263 156.816C103.852 160.378 97.9595 155.798 95.5643 153.063C90.4359 148.258 86.7104 136.62 87.5222 131.591C88.3341 126.561 92.3885 125.747 96.3485 129.458C98.6756 131.638 103.549 143.762 104.587 144.735C105.626 145.708 113.776 152.364 108.263 156.816Z" fill="url(#paint1_radial_1_41)"/>
<path d="M125.624 166.165C125.624 161.728 124.75 157.334 123.052 153.234C121.353 149.134 118.864 145.409 115.727 142.271C112.589 139.133 108.864 136.644 104.764 134.946C100.664 133.248 96.2701 132.374 91.8325 132.374C87.395 132.374 83.0009 133.248 78.9012 134.946C74.8014 136.644 71.0763 139.133 67.9385 142.271C64.8007 145.409 62.3116 149.134 60.6135 153.234C58.9153 157.334 58.0413 161.728 58.0413 166.165L91.8325 166.165H125.624Z" fill="url(#paint2_linear_1_41)"/>
</g>
<defs>
<linearGradient id="paint0_linear_1_41" x1="89.1102" y1="119.665" x2="105.922" y2="146.317" gradientUnits="userSpaceOnUse">
<stop stop-color="#A1E94A"/>
<stop offset="1" stop-color="#306705"/>
</linearGradient>
<radialGradient id="paint1_radial_1_41" cx="0" cy="0" r="1" gradientUnits="userSpaceOnUse" gradientTransform="translate(101.923 142.765) rotate(142.119) scale(9.68907 16.5571)">
<stop stop-color="#B96E6A"/>
<stop offset="0.773105" stop-color="#6D241F"/>
</radialGradient>
<linearGradient id="paint2_linear_1_41" x1="91.8325" y1="132.374" x2="91.8325" y2="165.087" gradientUnits="userSpaceOnUse">
<stop stop-color="#EA9917"/>
<stop offset="1" stop-color="#372406"/>
</linearGradient>
<clipPath id="clip0_1_41">
<rect width="180" height="180" fill="white"/>
</clipPath>
</defs>
</svg>
